<svg width="521" height="793" viewBox="0 0 521 793" fill="none" xmlns="http://www.w3.org/2000/svg">
<g opacity="0.3">
<path d="M1.35651 397.767C1.35651 469.542 59.531 527.727 131.293 527.728C203.055 527.728 261.229 469.542 261.229 397.767C261.229 325.992 203.055 267.806 131.293 267.806C59.531 267.806 1.35652 325.992 1.35651 397.767Z" fill="#BFA2D8"/>
<path fill-rule="evenodd" clip-rule="evenodd" d="M202.944 34.1445C175.141 13.7751 141.988 1.98597 107.569 0.22952C73.1499 -1.52693 38.9691 6.82608 9.23799 24.2594C-20.4932 41.6926 -44.4758 67.4445 -59.7548 98.3421C-75.0338 129.24 -80.9417 163.933 -76.7506 198.147C-121.947 192.383 -167.618 204.368 -204.164 231.584C-240.709 258.8 -265.281 299.126 -272.717 344.087C-280.029 388.904 -269.623 434.866 -243.713 472.156C-217.803 509.445 -178.411 535.197 -133.865 543.968C-153.117 585.034 -155.613 631.988 -140.823 674.865C-126.033 717.741 -95.1204 753.167 -54.6461 773.623C-14.0619 794.343 32.9427 798.631 76.6047 785.595C120.267 772.559 157.23 743.202 179.818 703.622C200.677 722.891 225.86 736.865 253.247 744.366C280.633 751.867 309.421 752.676 337.185 746.724C364.95 740.773 390.877 728.235 412.785 710.167C434.692 692.099 451.938 669.03 463.069 642.903C476.147 612.047 480.058 578.076 474.333 545.055C468.608 512.034 453.49 481.363 430.788 456.713C470.458 434.633 500.036 398.046 513.317 354.626C526.598 311.206 522.551 264.329 502.024 223.83C481.496 183.33 446.084 152.356 403.218 137.406C360.351 122.456 313.362 124.692 272.108 143.644C263.733 99.7249 239.02 60.6151 202.953 34.2011M8.44876 421.073C19.0576 489.66 83.5864 536.555 152.614 525.874C221.642 515.193 268.987 450.987 258.378 382.4C247.769 313.813 183.24 266.918 114.212 277.599C45.184 288.28 -2.16012 352.485 8.44876 421.073Z" fill="#BFA2D8"/>
</g>
</svg>
