<svg width="496" height="726" viewBox="0 0 496 726" fill="none" xmlns="http://www.w3.org/2000/svg">
<g opacity="0.3">
<path d="M20.0954 364.16C20.0954 429.871 73.3732 483.14 139.095 483.14C204.816 483.14 258.094 429.871 258.094 364.16C258.094 298.449 204.816 245.179 139.095 245.179C73.3732 245.179 20.0954 298.449 20.0954 364.16Z" fill="#BFA2D8"/>
<path fill-rule="evenodd" clip-rule="evenodd" d="M204.715 31.2596C179.252 12.6113 148.89 1.81818 117.368 0.210128C85.8459 -1.39792 54.5421 6.24935 27.3135 22.2097C0.0847877 38.1701 -21.8792 61.7462 -35.8721 90.0332C-49.8651 118.32 -55.2757 150.082 -51.4374 181.406C-92.8299 176.128 -134.657 187.101 -168.126 212.018C-201.595 236.934 -224.099 273.853 -230.909 315.015C-237.606 356.046 -228.075 398.124 -204.346 432.264C-180.617 466.403 -144.541 489.979 -103.744 498.008C-121.376 535.605 -123.662 578.592 -110.117 617.846C-96.5713 657.1 -68.261 689.532 -31.1934 708.26C5.97471 727.23 49.0229 731.155 89.0098 719.221C128.997 707.286 162.849 680.41 183.535 644.173C202.639 661.815 225.702 674.608 250.784 681.475C275.865 688.342 302.23 689.083 327.657 683.634C353.084 678.185 376.83 666.707 396.893 650.165C416.957 633.624 432.751 612.504 442.946 588.585C454.923 560.336 458.504 529.235 453.261 499.004C448.018 468.773 434.172 440.693 413.382 418.125C449.712 397.911 476.8 364.415 488.964 324.664C501.127 284.913 497.42 241.996 478.621 204.918C459.821 167.841 427.39 139.484 388.132 125.797C348.873 112.11 305.839 114.157 268.057 131.508C260.388 91.2993 237.755 55.4938 204.723 31.3115M26.5907 385.497C36.3066 448.289 95.4039 491.222 158.622 481.443C221.84 471.665 265.199 412.884 255.483 350.091C245.767 287.299 186.67 244.366 123.452 254.145C60.2339 263.923 16.8747 322.704 26.5907 385.497Z" fill="#BFA2D8"/>
</g>
</svg>
