<svg width="450" height="678" viewBox="0 0 450 678" fill="none" xmlns="http://www.w3.org/2000/svg">
<g opacity="0.3">
<path d="M444.569 340.083C444.569 401.45 394.8 451.197 333.405 451.197C272.011 451.197 222.241 401.45 222.241 340.083C222.241 278.717 272.011 228.969 333.405 228.969C394.799 228.969 444.569 278.717 444.569 340.083Z" fill="#BFA2D8"/>
<path fill-rule="evenodd" clip-rule="evenodd" d="M272.106 29.1929C295.892 11.7775 324.255 1.69797 353.702 0.196235C383.148 -1.30549 412.391 5.83617 437.827 20.7413C463.262 35.6464 483.78 57.6638 496.852 84.0806C509.923 110.497 514.978 140.159 511.392 169.412C550.059 164.484 589.132 174.731 620.397 198C651.663 221.269 672.686 255.747 679.047 294.188C685.303 332.506 676.4 371.802 654.233 403.684C632.066 435.566 598.366 457.583 560.255 465.082C576.726 500.193 578.861 540.338 566.208 576.996C553.554 613.655 527.108 643.943 492.481 661.433C457.76 679.148 417.547 682.814 380.192 671.669C342.838 660.524 311.215 635.424 291.891 601.583C274.045 618.058 252.5 630.005 229.071 636.419C205.641 642.832 181.012 643.524 157.259 638.435C133.506 633.347 111.324 622.627 92.581 607.179C73.8385 591.731 59.0843 572.008 49.5612 549.67C38.3727 523.289 35.0272 494.244 39.9252 466.012C44.8231 437.779 57.757 411.556 77.1786 390.481C43.2405 371.603 17.9355 340.321 6.57294 303.198C-4.78966 266.075 -1.32682 225.996 16.2349 191.37C33.7967 156.744 64.0924 130.262 100.766 117.48C137.439 104.698 177.64 106.609 212.934 122.813C220.099 85.2629 241.241 51.8248 272.098 29.2413M438.502 360.009C429.426 418.65 374.219 458.744 315.164 449.612C256.109 440.48 215.604 385.586 224.681 326.945C233.757 268.304 288.963 228.21 348.018 237.342C407.074 246.474 447.578 301.368 438.502 360.009Z" fill="#BFA2D8"/>
</g>
</svg>
