<svg width="14" height="13" viewBox="0 0 14 13" fill="none" xmlns="http://www.w3.org/2000/svg">
<path d="M13.8751 4.33652C13.8283 4.28093 13.7707 4.23634 13.706 4.20574C13.6414 4.17514 13.5712 4.15922 13.5001 4.15905H10.727L7.37508 0.176071C7.32816 0.120734 7.27046 0.0764144 7.2058 0.0460572C7.14114 0.0157 7.07102 0 7.00008 0C6.92914 0 6.85902 0.0157 6.79436 0.0460572C6.7297 0.0764144 6.672 0.120734 6.62508 0.176071L3.27318 4.15905H0.500037C0.428777 4.15904 0.35834 4.17488 0.293445 4.2055C0.22855 4.23612 0.170697 4.28081 0.123764 4.33659C0.0768307 4.39236 0.0419011 4.45792 0.0213162 4.52888C0.000731337 4.59983 -0.00503336 4.67455 0.00440856 4.74801L0.94629 12.0977C0.979146 12.3471 1.09756 12.5758 1.27971 12.7416C1.46186 12.9074 1.69549 12.9992 1.93755 13H12.0626C12.3047 12.9992 12.5383 12.9074 12.7204 12.7416C12.9026 12.5758 13.021 12.3471 13.0539 12.0977L13.9958 4.74801C14.005 4.67444 13.9991 4.59966 13.9783 4.52868C13.9575 4.45771 13.9223 4.39219 13.8751 4.33652ZM4.10006 10.9198C4.0832 10.9208 4.0663 10.9208 4.04944 10.9198C3.92505 10.9204 3.8049 10.8728 3.71245 10.7863C3.61999 10.6997 3.56187 10.5805 3.54943 10.4517L3.19943 6.81134C3.18617 6.6741 3.22587 6.537 3.30979 6.43021C3.39371 6.32341 3.51499 6.25567 3.64693 6.24187C3.77888 6.22808 3.91069 6.26937 4.01336 6.35666C4.11604 6.44395 4.18118 6.57009 4.19444 6.70732L4.54444 10.3477C4.55844 10.4849 4.51949 10.6222 4.43615 10.7295C4.35282 10.8367 4.23192 10.9052 4.10006 10.9198ZM7.50008 10.3997C7.50008 10.5376 7.4474 10.6699 7.35364 10.7675C7.25987 10.865 7.13269 10.9198 7.00008 10.9198C6.86747 10.9198 6.74029 10.865 6.64652 10.7675C6.55276 10.6699 6.50008 10.5376 6.50008 10.3997V6.75933C6.50008 6.6214 6.55276 6.48912 6.64652 6.39159C6.74029 6.29406 6.86747 6.23927 7.00008 6.23927C7.13269 6.23927 7.25987 6.29406 7.35364 6.39159C7.4474 6.48912 7.50008 6.6214 7.50008 6.75933V10.3997ZM4.60194 4.15905L7.00008 1.30849L9.39822 4.15905H4.60194ZM10.7976 6.81134L10.4476 10.4517C10.4352 10.5799 10.3775 10.6987 10.2857 10.7852C10.194 10.8717 10.0746 10.9196 9.95072 10.9198C9.93386 10.9208 9.91696 10.9208 9.9001 10.9198C9.83476 10.9129 9.77137 10.8928 9.71352 10.8605C9.65567 10.8282 9.60451 10.7843 9.56295 10.7314C9.5214 10.6786 9.49027 10.6177 9.47133 10.5523C9.4524 10.4869 9.44603 10.4183 9.4526 10.3503L9.8026 6.70992C9.81586 6.57269 9.88099 6.44655 9.98367 6.35926C10.0863 6.27197 10.2182 6.23068 10.3501 6.24447C10.482 6.25827 10.6033 6.32601 10.6872 6.43281C10.7712 6.5396 10.8109 6.6767 10.7976 6.81394V6.81134Z" fill="white"/>
</svg>
