<svg width="26" height="22" viewBox="0 0 26 22" fill="none" xmlns="http://www.w3.org/2000/svg">
<path d="M0 1.57143C0 1.15466 0.171205 0.754961 0.475952 0.460261C0.780698 0.165561 1.19402 0 1.625 0H24.375C24.806 0 25.2193 0.165561 25.524 0.460261C25.8288 0.754961 26 1.15466 26 1.57143C26 1.9882 25.8288 2.3879 25.524 2.6826C25.2193 2.9773 24.806 3.14286 24.375 3.14286H1.625C1.19402 3.14286 0.780698 2.9773 0.475952 2.6826C0.171205 2.3879 0 1.9882 0 1.57143ZM0 11C0 10.5832 0.171205 10.1835 0.475952 9.88883C0.780698 9.59413 1.19402 9.42857 1.625 9.42857H24.375C24.806 9.42857 25.2193 9.59413 25.524 9.88883C25.8288 10.1835 26 10.5832 26 11C26 11.4168 25.8288 11.8165 25.524 12.1112C25.2193 12.4059 24.806 12.5714 24.375 12.5714H1.625C1.19402 12.5714 0.780698 12.4059 0.475952 12.1112C0.171205 11.8165 0 11.4168 0 11ZM1.625 18.8571C1.19402 18.8571 0.780698 19.0227 0.475952 19.3174C0.171205 19.6121 0 20.0118 0 20.4286C0 20.8453 0.171205 21.245 0.475952 21.5397C0.780698 21.8344 1.19402 22 1.625 22H24.375C24.806 22 25.2193 21.8344 25.524 21.5397C25.8288 21.245 26 20.8453 26 20.4286C26 20.0118 25.8288 19.6121 25.524 19.3174C25.2193 19.0227 24.806 18.8571 24.375 18.8571H1.625Z" fill="black"/>
</svg>
