<svg width="17" height="11" viewBox="0 0 17 11" fill="none" xmlns="http://www.w3.org/2000/svg">
<path d="M10.1667 7.95455H16M1 7.95455H2.66667M2.66667 7.95455C2.66667 8.49703 2.88616 9.0173 3.27686 9.4009C3.66756 9.7845 4.19747 10 4.75 10C5.30253 10 5.83244 9.7845 6.22314 9.4009C6.61384 9.0173 6.83333 8.49703 6.83333 7.95455C6.83333 7.41206 6.61384 6.89179 6.22314 6.50819C5.83244 6.12459 5.30253 5.90909 4.75 5.90909C4.19747 5.90909 3.66756 6.12459 3.27686 6.50819C2.88616 6.89179 2.66667 7.41206 2.66667 7.95455ZM15.1667 3.04545H16M1 3.04545H6.83333M12.25 5.09091C11.6975 5.09091 11.1676 4.87541 10.7769 4.49181C10.3862 4.10821 10.1667 3.58794 10.1667 3.04545C10.1667 2.50297 10.3862 1.9827 10.7769 1.5991C11.1676 1.2155 11.6975 1 12.25 1C12.8025 1 13.3324 1.2155 13.7231 1.5991C14.1138 1.9827 14.3333 2.50297 14.3333 3.04545C14.3333 3.58794 14.1138 4.10821 13.7231 4.49181C13.3324 4.87541 12.8025 5.09091 12.25 5.09091Z" stroke="#292929" stroke-width="2" stroke-linecap="round" stroke-linejoin="round"/>
</svg>
