<svg width="18" height="19" viewBox="0 0 18 19" fill="none" xmlns="http://www.w3.org/2000/svg">
<path d="M8.58216 0C8.98383 0 9.36905 0.158035 9.65307 0.43934C9.9371 0.720644 10.0967 1.10218 10.0967 1.5C10.0967 1.89782 9.9371 2.27936 9.65307 2.56066C9.36905 2.84196 8.98383 3 8.58216 3H3.53383C3.39994 3 3.27153 3.05268 3.17686 3.14645C3.08219 3.24021 3.029 3.36739 3.029 3.5V15.5C3.029 15.6326 3.08219 15.7598 3.17686 15.8536C3.27153 15.9473 3.39994 16 3.53383 16H8.07733C8.479 16 8.86422 16.158 9.14824 16.4393C9.43226 16.7206 9.59183 17.1022 9.59183 17.5C9.59183 17.8978 9.43226 18.2794 9.14824 18.5607C8.86422 18.842 8.479 19 8.07733 19H3.53383C2.5966 19 1.69776 18.6313 1.03504 17.9749C0.372313 17.3185 0 16.4283 0 15.5V3.5C0 2.57174 0.372313 1.6815 1.03504 1.02513C1.69776 0.368749 2.5966 0 3.53383 0H8.58216ZM14.7007 5.61L17.5571 8.44C17.8407 8.72125 18 9.1025 18 9.5C18 9.8975 17.8407 10.2787 17.5571 10.56L14.7017 13.39C14.4176 13.6714 14.0323 13.8295 13.6305 13.8295C13.2287 13.8295 12.8433 13.6714 12.5592 13.39C12.2751 13.1086 12.1155 12.727 12.1155 12.329C12.1155 11.931 12.2751 11.5494 12.5592 11.268L12.8298 11H8.58216C8.18049 11 7.79527 10.842 7.51125 10.5607C7.22722 10.2794 7.06766 9.89782 7.06766 9.5C7.06766 9.10218 7.22722 8.72064 7.51125 8.43934C7.79527 8.15804 8.18049 8 8.58216 8H12.8298L12.5592 7.732C12.4186 7.59267 12.3071 7.42727 12.231 7.24525C12.1549 7.06323 12.1158 6.86815 12.1159 6.67115C12.1159 6.47415 12.1551 6.27909 12.2313 6.0971C12.3075 5.91511 12.4191 5.74977 12.5597 5.6105C12.7004 5.47123 12.8674 5.36077 13.0512 5.28543C13.235 5.21008 13.4319 5.17133 13.6308 5.17137C13.8297 5.17142 14.0267 5.21027 14.2104 5.2857C14.3942 5.36113 14.5611 5.47167 14.7017 5.611L14.7007 5.61Z" fill="#292929"/>
</svg>
