<svg width="19" height="15" viewBox="0 0 19 15" fill="none" xmlns="http://www.w3.org/2000/svg">
<path d="M18 6.36396C18.5523 6.36396 19 6.81168 19 7.36396C19 7.91625 18.5523 8.36396 18 8.36396V7.36396V6.36396ZM-0.707108 8.07107C-1.09763 7.68054 -1.09763 7.04738 -0.707108 6.65685L5.65685 0.292893C6.04738 -0.097631 6.68054 -0.097631 7.07107 0.292893C7.46159 0.683418 7.46159 1.31658 7.07107 1.70711L1.41421 7.36396L7.07107 13.0208C7.46159 13.4113 7.46159 14.0445 7.07107 14.435C6.68054 14.8256 6.04738 14.8256 5.65685 14.435L-0.707108 8.07107ZM18 7.36396V8.36396H0V7.36396V6.36396H18V7.36396Z" fill="white"/>
</svg>
