<svg width="25" height="24" viewBox="0 0 25 24" fill="none" xmlns="http://www.w3.org/2000/svg">
<path d="M23.7282 17.1031C23.107 16.795 20.0758 15.2541 19.5292 15.023C18.9577 14.8176 18.5602 14.7149 18.1378 15.3312C17.7154 15.9732 16.5476 17.4113 16.1998 17.8222C15.8519 18.2587 15.4792 18.3101 14.8581 17.9763C14.2369 17.6681 12.2492 16.9747 9.91367 14.8176C8.07504 13.1227 6.85757 11.0426 6.48488 10.4006C6.13703 9.75854 6.43519 9.4247 6.75819 9.09085C7.0315 8.80837 7.37935 8.34612 7.6775 7.9866C7.97566 7.62707 8.09989 7.34459 8.29866 6.9337C8.49743 6.49713 8.39804 6.13761 8.24897 5.82945C8.09989 5.52128 6.85757 2.38828 6.36065 1.10426C5.86372 -0.128401 5.34195 0.0256804 4.96926 0H3.77663C3.35425 0 2.70824 0.154082 2.13678 0.796092C1.59016 1.4381 0 2.97892 0 6.11193C0 9.24494 2.21132 12.2752 2.50948 12.6861C2.80763 13.1227 6.85758 19.5428 13.0195 22.2906C14.4854 22.9583 15.6283 23.3435 16.5228 23.6259C17.9887 24.1139 19.3304 24.0368 20.3988 23.8827C21.5914 23.703 24.0512 22.3419 24.5481 20.8525C25.0699 19.363 25.0699 18.1047 24.896 17.8222C24.7221 17.5397 24.3494 17.4113 23.7282 17.1031Z" fill="#292929"/>
</svg>
