<svg width="454" height="739" viewBox="0 0 454 739" fill="none" xmlns="http://www.w3.org/2000/svg">
<g opacity="0.3">
<path d="M205.109 339.953C223.153 404.454 185.488 471.372 120.981 489.418C56.4737 507.464 -10.4474 469.804 -28.4918 405.302C-46.5361 340.8 -8.87059 273.882 55.6365 255.837C120.144 237.791 187.065 275.451 205.109 339.953Z" fill="#BFA2D8"/>
<path fill-rule="evenodd" clip-rule="evenodd" d="M-67.5137 63.8713C-47.6424 38.5747 -20.8045 19.6432 9.69326 9.40945C40.1911 -0.824277 73.0163 -1.91312 104.125 6.27709C135.233 14.4673 163.265 31.5787 184.767 55.503C206.269 79.4272 220.302 109.119 225.136 140.92C264.314 124.374 308.381 123.66 348.074 138.928C387.766 154.196 419.993 184.257 437.98 222.791C455.82 261.228 458.021 305.149 444.105 345.176C430.189 385.202 401.254 418.25 363.415 437.334C391.045 469.398 405.093 510.965 402.577 553.216C400.062 595.467 381.18 635.076 349.941 663.638C318.668 692.464 277.493 708.137 234.968 707.402C192.443 706.667 151.836 689.58 121.581 659.69C107.676 682.252 88.5511 701.143 65.819 714.771C43.0868 728.398 17.4127 736.364 -9.0411 737.998C-35.4949 739.631 -61.9536 734.884 -86.1887 724.156C-110.424 713.428 -131.726 697.034 -148.3 676.353C-167.813 651.913 -179.868 622.368 -183.024 591.253C-186.179 560.139 -180.3 528.774 -166.091 500.913C-207.3 491.047 -243.086 465.605 -265.941 429.925C-288.795 394.245 -296.942 351.101 -288.671 309.543C-280.4 267.986 -256.355 231.246 -221.581 207.031C-186.807 182.817 -144.005 173.009 -102.157 179.667C-105.671 138.093 -93.2883 96.7316 -67.5073 63.9245M204.593 362.68C212.3 426.985 166.084 485.354 101.349 493.114C36.6139 500.874 -22.0853 455.08 -29.7919 390.776C-37.4984 326.471 8.71751 268.101 73.4524 260.341C138.187 252.582 196.886 298.375 204.593 362.68Z" fill="#BFA2D8"/>
</g>
</svg>
