<svg width="484" height="739" viewBox="0 0 484 739" fill="none" xmlns="http://www.w3.org/2000/svg">
<g opacity="0.3">
<path d="M235.109 339.953C253.153 404.454 215.488 471.372 150.981 489.418C86.4737 507.464 19.5526 469.804 1.50824 405.302C-16.5361 340.8 21.1294 273.882 85.6365 255.837C150.144 237.791 217.065 275.451 235.109 339.953Z" fill="#BFA2D8"/>
<path fill-rule="evenodd" clip-rule="evenodd" d="M-37.5137 63.8713C-17.6424 38.5747 9.19545 19.6432 39.6933 9.40945C70.1911 -0.824277 103.016 -1.91312 134.125 6.27709C165.233 14.4673 193.265 31.5787 214.767 55.503C236.269 79.4272 250.302 109.119 255.136 140.92C294.314 124.374 338.381 123.66 378.074 138.928C417.766 154.196 449.993 184.257 467.98 222.791C485.82 261.228 488.021 305.149 474.105 345.176C460.189 385.202 431.254 418.25 393.415 437.334C421.045 469.398 435.093 510.965 432.577 553.216C430.062 595.467 411.18 635.076 379.941 663.638C348.668 692.464 307.493 708.137 264.968 707.402C222.443 706.667 181.836 689.58 151.581 659.69C137.676 682.252 118.551 701.143 95.819 714.771C73.0868 728.398 47.4127 736.364 20.9589 737.998C-5.49488 739.631 -31.9536 734.884 -56.1887 724.156C-80.4238 713.428 -101.726 697.034 -118.3 676.353C-137.813 651.913 -149.868 622.368 -153.024 591.253C-156.179 560.139 -150.3 528.774 -136.091 500.913C-177.3 491.047 -213.086 465.605 -235.941 429.925C-258.795 394.245 -266.942 351.101 -258.671 309.543C-250.4 267.986 -226.355 231.246 -191.581 207.031C-156.807 182.817 -114.005 173.009 -72.1571 179.667C-75.6706 138.093 -63.2883 96.7316 -37.5073 63.9245M234.593 362.68C242.3 426.985 196.084 485.354 131.349 493.114C66.6139 500.874 7.91466 455.08 0.208137 390.776C-7.49839 326.471 38.7175 268.101 103.452 260.341C168.187 252.582 226.886 298.375 234.593 362.68Z" fill="#BFA2D8"/>
</g>
</svg>
