<svg width="525" height="712" viewBox="0 0 525 712" fill="none" xmlns="http://www.w3.org/2000/svg">
<g opacity="0.3">
<path d="M466.765 357.137C466.765 421.581 414.51 473.823 350.051 473.823C285.592 473.823 233.337 421.581 233.337 357.137C233.337 292.694 285.592 240.451 350.051 240.451C414.51 240.451 466.765 292.694 466.765 357.137Z" fill="#BFA2D8"/>
<path fill-rule="evenodd" clip-rule="evenodd" d="M285.691 30.6568C310.665 12.3681 340.444 1.78311 371.361 0.206076C402.277 -1.37096 432.98 6.12884 459.686 21.7814C486.391 37.434 507.934 60.5555 521.658 88.297C535.382 116.039 540.689 147.188 536.924 177.908C577.522 172.732 618.545 183.493 651.372 207.929C684.198 232.365 706.27 268.572 712.949 308.94C719.517 349.18 710.17 390.447 686.897 423.928C663.623 457.409 628.24 480.53 588.226 488.405C605.52 525.277 607.762 567.434 594.476 605.931C581.191 644.429 553.425 676.235 517.069 694.602C480.615 713.206 438.393 717.055 399.174 705.351C359.955 693.647 326.753 667.289 306.464 631.751C287.728 649.052 265.107 661.599 240.507 668.334C215.907 675.068 190.049 675.795 165.11 670.451C140.171 665.107 116.882 653.85 97.2033 637.628C77.525 621.405 62.0342 600.693 52.0356 577.234C40.2885 549.53 36.776 519.029 41.9185 489.381C47.061 459.733 60.6406 432.195 81.0318 410.062C45.3993 390.238 18.831 357.388 6.9011 318.403C-5.02879 279.418 -1.39307 237.33 17.0455 200.967C35.484 164.604 67.2923 136.794 105.797 123.371C144.301 109.948 186.509 111.955 223.565 128.972C231.088 89.5387 253.286 54.4236 285.683 30.7077M460.395 378.063C450.865 439.644 392.903 481.749 330.899 472.159C268.895 462.569 226.369 404.922 235.898 343.34C245.427 281.759 303.39 239.654 365.394 249.244C427.397 258.834 469.924 316.481 460.395 378.063Z" fill="#BFA2D8"/>
</g>
</svg>
