<svg width="459" height="739" viewBox="0 0 459 739" fill="none" xmlns="http://www.w3.org/2000/svg">
<g opacity="0.3">
<path d="M210.109 339.953C228.153 404.454 190.488 471.372 125.981 489.418C61.4737 507.464 -5.44743 469.804 -23.4918 405.302C-41.5361 340.8 -3.87059 273.882 60.6365 255.837C125.144 237.791 192.065 275.451 210.109 339.953Z" fill="#BFA2D8"/>
<path fill-rule="evenodd" clip-rule="evenodd" d="M-62.5137 63.8713C-42.6424 38.5747 -15.8045 19.6432 14.6933 9.40945C45.1911 -0.824277 78.0163 -1.91312 109.125 6.27709C140.233 14.4673 168.265 31.5787 189.767 55.503C211.269 79.4272 225.302 109.119 230.136 140.92C269.314 124.374 313.381 123.66 353.074 138.928C392.766 154.196 424.993 184.257 442.98 222.791C460.82 261.228 463.021 305.149 449.105 345.176C435.189 385.202 406.254 418.25 368.415 437.334C396.045 469.398 410.093 510.965 407.577 553.216C405.062 595.467 386.18 635.076 354.941 663.638C323.668 692.464 282.493 708.137 239.968 707.402C197.443 706.667 156.836 689.58 126.581 659.69C112.676 682.252 93.5511 701.143 70.819 714.771C48.0868 728.398 22.4127 736.364 -4.0411 737.998C-30.4949 739.631 -56.9536 734.884 -81.1887 724.156C-105.424 713.428 -126.726 697.034 -143.3 676.353C-162.813 651.913 -174.868 622.368 -178.024 591.253C-181.179 560.139 -175.3 528.774 -161.091 500.913C-202.3 491.047 -238.086 465.605 -260.941 429.925C-283.795 394.245 -291.942 351.101 -283.671 309.543C-275.4 267.986 -251.355 231.246 -216.581 207.031C-181.807 182.817 -139.005 173.009 -97.1571 179.667C-100.671 138.093 -88.2883 96.7316 -62.5073 63.9245M209.593 362.68C217.3 426.985 171.084 485.354 106.349 493.114C41.6139 500.874 -17.0853 455.08 -24.7919 390.776C-32.4984 326.471 13.7175 268.101 78.4524 260.341C143.187 252.582 201.886 298.375 209.593 362.68Z" fill="#BFA2D8"/>
</g>
</svg>
