<svg width="530" height="787" viewBox="0 0 530 787" fill="none" xmlns="http://www.w3.org/2000/svg">
<g opacity="0.3">
<path d="M515.727 394.757C515.727 465.989 457.991 523.735 386.77 523.735C315.549 523.735 257.813 465.989 257.813 394.757C257.813 323.525 315.549 265.78 386.77 265.78C457.991 265.78 515.727 323.525 515.727 394.757Z" fill="#BFA2D8"/>
<path fill-rule="evenodd" clip-rule="evenodd" d="M315.659 33.8861C343.252 13.6709 376.155 1.97094 410.315 0.227784C444.474 -1.51537 478.397 6.77443 507.905 24.0758C537.412 41.3772 561.213 66.9342 576.377 97.598C591.541 128.262 597.404 162.692 593.245 196.648C638.101 190.927 683.428 202.822 719.697 229.832C755.967 256.842 780.355 296.863 787.734 341.483C794.991 385.962 784.663 431.576 758.949 468.583C733.234 505.591 694.14 531.148 649.928 539.852C669.036 580.608 671.513 627.206 656.834 669.758C642.155 712.311 611.476 747.468 571.307 767.77C531.029 788.333 484.378 792.588 441.046 779.651C397.713 766.714 361.028 737.579 338.611 698.298C317.909 717.422 292.915 731.29 265.735 738.734C238.555 746.178 209.984 746.981 182.429 741.074C154.874 735.168 129.142 722.725 107.399 704.794C85.657 686.862 68.5413 663.968 57.4939 638.039C44.5146 607.416 40.6336 573.702 46.3155 540.931C51.9975 508.16 67.0015 477.721 89.5317 453.257C50.1615 431.345 20.8063 395.034 7.625 351.943C-5.55629 308.852 -1.53919 262.329 18.8335 222.136C39.2061 181.943 74.3509 151.203 116.894 136.367C159.438 121.53 206.073 123.748 247.016 142.557C255.328 98.9704 279.854 60.1565 315.65 33.9424M508.688 417.887C498.159 485.955 434.116 532.495 365.609 521.895C297.101 511.295 250.114 447.575 260.643 379.507C271.172 311.438 335.214 264.898 403.722 275.498C472.229 286.099 519.217 349.818 508.688 417.887Z" fill="#BFA2D8"/>
</g>
</svg>
