<svg width="518" height="793" viewBox="0 0 518 793" fill="none" xmlns="http://www.w3.org/2000/svg">
<g opacity="0.3">
<path d="M-1.64349 397.767C-1.64349 469.542 56.531 527.727 128.293 527.728C200.055 527.728 258.229 469.542 258.229 397.767C258.229 325.992 200.055 267.806 128.293 267.806C56.531 267.806 -1.64348 325.992 -1.64349 397.767Z" fill="#BFA2D8"/>
<path fill-rule="evenodd" clip-rule="evenodd" d="M199.944 34.1445C172.141 13.7751 138.988 1.98597 104.569 0.22952C70.1499 -1.52693 35.9691 6.82608 6.23799 24.2594C-23.4932 41.6926 -47.4758 67.4445 -62.7548 98.3421C-78.0338 129.24 -83.9417 163.933 -79.7506 198.147C-124.947 192.383 -170.618 204.368 -207.164 231.584C-243.709 258.8 -268.281 299.126 -275.717 344.087C-283.029 388.904 -272.623 434.866 -246.713 472.156C-220.803 509.445 -181.411 535.197 -136.865 543.968C-156.117 585.034 -158.613 631.988 -143.823 674.865C-129.033 717.741 -98.1204 753.167 -57.6461 773.623C-17.0619 794.343 29.9427 798.631 73.6047 785.595C117.267 772.559 154.23 743.202 176.818 703.622C197.677 722.891 222.86 736.865 250.247 744.366C277.633 751.867 306.421 752.676 334.185 746.724C361.95 740.773 387.877 728.235 409.785 710.167C431.692 692.099 448.938 669.03 460.069 642.903C473.147 612.047 477.058 578.076 471.333 545.055C465.608 512.034 450.49 481.363 427.788 456.713C467.458 434.633 497.036 398.046 510.317 354.626C523.598 311.206 519.551 264.329 499.024 223.83C478.496 183.33 443.084 152.356 400.218 137.406C357.351 122.456 310.362 124.692 269.108 143.644C260.733 99.7249 236.02 60.6151 199.953 34.2011M5.44876 421.073C16.0576 489.66 80.5864 536.555 149.614 525.874C218.642 515.193 265.987 450.987 255.378 382.4C244.769 313.813 180.24 266.918 111.212 277.599C42.184 288.28 -5.16012 352.485 5.44876 421.073Z" fill="#BFA2D8"/>
</g>
</svg>
