<svg width="523" height="808" viewBox="0 0 523 808" fill="none" xmlns="http://www.w3.org/2000/svg">
<g opacity="0.3">
<path d="M529.436 405.291C529.436 478.424 470.165 537.71 397.051 537.71C323.937 537.71 264.666 478.424 264.666 405.291C264.666 332.158 323.937 272.872 397.051 272.872C470.165 272.872 529.436 332.158 529.436 405.291Z" fill="#BFA2D8"/>
<path fill-rule="evenodd" clip-rule="evenodd" d="M324.05 34.7903C352.376 14.0357 386.154 2.02353 421.222 0.233862C456.289 -1.55581 491.114 6.9552 521.406 24.7182C551.697 42.4813 576.132 68.7203 591.699 100.202C607.266 131.684 613.285 167.034 609.015 201.895C655.063 196.022 701.595 208.234 738.829 235.964C776.062 263.695 801.098 304.784 808.674 350.595C816.124 396.26 805.521 443.092 779.123 481.087C752.725 519.082 712.591 545.321 667.205 554.257C686.82 596.101 689.363 643.942 674.294 687.63C659.225 731.318 627.731 767.413 586.494 788.256C545.145 809.368 497.254 813.737 452.77 800.455C408.285 787.173 370.625 757.26 347.612 716.931C326.36 736.565 300.702 750.803 272.799 758.446C244.896 766.089 215.566 766.913 187.279 760.849C158.991 754.785 132.575 742.01 110.254 723.6C87.9339 705.19 70.3633 681.685 59.0222 655.064C45.6979 623.624 41.7138 589.01 47.5467 555.365C53.3797 521.719 68.7826 490.468 91.9116 465.352C51.4949 442.855 21.3594 405.575 7.82769 361.334C-5.70398 317.093 -1.58011 269.329 19.3341 228.064C40.2483 186.798 76.3274 155.238 120.002 140.005C163.676 124.772 211.551 127.05 253.583 146.361C262.115 101.611 287.293 61.7617 324.041 34.8481M522.21 429.037C511.401 498.922 445.656 546.704 375.328 535.821C304.999 524.938 256.762 459.518 267.571 389.633C278.38 319.748 344.125 271.967 414.454 282.85C484.782 293.733 533.019 359.153 522.21 429.037Z" fill="#BFA2D8"/>
</g>
</svg>
