<svg width="510" height="682" viewBox="0 0 510 682" fill="none" xmlns="http://www.w3.org/2000/svg">
<g opacity="0.3">
<path d="M62.8194 342.09C62.8194 403.818 112.882 453.859 174.636 453.859C236.391 453.859 286.453 403.818 286.453 342.09C286.453 280.361 236.391 230.32 174.636 230.32C112.882 230.32 62.8194 280.361 62.8194 342.09Z" fill="#BFA2D8"/>
<path fill-rule="evenodd" clip-rule="evenodd" d="M236.296 29.3651C212.37 11.847 183.84 1.70798 154.221 0.197393C124.601 -1.3132 95.187 5.8706 69.6018 20.8637C44.0166 35.8567 23.3783 58.004 10.2299 84.5766C-2.91853 111.149 -8.00258 140.986 -4.3959 170.412C-43.2901 165.454 -82.5925 175.762 -114.041 199.168C-145.49 222.574 -166.637 257.256 -173.035 295.923C-179.328 334.467 -170.373 373.996 -148.076 406.066C-125.779 438.136 -91.8805 460.283 -53.5456 467.826C-70.1132 503.144 -72.2611 543.526 -59.5334 580.401C-46.8057 617.276 -20.2041 647.742 14.6262 665.335C49.551 683.155 90.001 686.842 127.574 675.631C165.148 664.42 196.957 639.173 216.395 605.132C234.345 621.705 256.016 633.722 279.584 640.173C303.152 646.625 327.925 647.32 351.818 642.202C375.71 637.083 398.023 626.3 416.875 610.761C435.728 595.223 450.569 575.383 460.148 552.913C471.402 526.376 474.767 497.16 469.84 468.761C464.914 440.362 451.904 413.984 432.368 392.784C466.506 373.796 491.959 342.329 503.388 304.987C514.818 267.645 511.335 227.33 493.67 192.499C476.005 157.669 445.531 131.03 408.642 118.173C371.753 105.315 331.316 107.238 295.815 123.538C288.608 85.766 267.342 52.1305 236.303 29.4138M68.9226 362.133C78.0521 421.12 133.583 461.451 192.985 452.265C252.387 443.079 293.129 387.861 284 328.874C274.87 269.887 219.34 229.556 159.938 238.742C100.535 247.928 59.7931 303.146 68.9226 362.133Z" fill="#BFA2D8"/>
</g>
</svg>
