<svg width="402" height="598" viewBox="0 0 402 598" fill="none" xmlns="http://www.w3.org/2000/svg">
<g opacity="0.3">
<path d="M400.244 296.556C404.401 350.971 363.696 398.451 309.326 402.604C254.957 406.757 207.512 366.012 203.355 311.596C199.198 257.181 239.904 209.701 294.273 205.548C348.643 201.395 396.088 242.14 400.244 296.556Z" fill="#BFA2D8"/>
<path fill-rule="evenodd" clip-rule="evenodd" d="M226.455 32.5468C246.34 15.495 270.776 4.63839 296.751 1.31474C322.726 -2.00891 349.107 2.34558 372.642 13.8417C396.177 25.3378 415.838 43.4733 429.204 66.0136C442.569 88.5539 449.054 114.514 447.861 140.696C481.769 133.71 517.066 140.153 546.33 158.672C575.594 177.19 596.547 206.341 604.784 239.997C612.919 273.551 607.697 308.999 590.226 338.769C572.756 368.539 544.403 390.343 511.16 399.57C528.125 429.59 532.735 465.043 524.013 498.405C515.29 531.768 493.922 560.414 464.441 578.265C434.893 596.323 399.529 602.294 365.694 594.938C331.859 587.582 302.154 567.465 282.749 538.764C268.061 554.581 249.791 566.632 229.476 573.904C209.161 581.176 187.398 583.455 166.018 580.55C144.638 577.645 124.268 569.64 106.623 557.21C88.9789 544.78 74.5769 528.288 64.6302 509.125C52.935 486.489 48.0049 460.96 50.43 435.594C52.8552 410.228 62.5328 386.1 78.3046 366.098C46.971 351.655 22.4426 325.629 9.86549 293.479C-2.7116 261.33 -2.35983 225.556 10.847 193.664C24.0538 161.772 49.0893 136.24 80.7007 122.424C112.312 108.609 148.043 107.585 180.396 119.566C184.197 85.7841 200.656 54.7032 226.452 32.5903M396.221 314.635C392.155 367.248 345.982 406.535 293.065 402.433C240.148 398.33 200.56 352.394 204.626 299.781C208.691 247.168 254.865 207.881 307.781 211.983C360.698 216.086 400.286 262.022 396.221 314.635Z" fill="#BFA2D8"/>
</g>
</svg>
