<svg width="388" height="512" viewBox="0 0 388 512" fill="none" xmlns="http://www.w3.org/2000/svg">
<g opacity="0.3">
<path d="M46.4671 253.457C42.9152 299.954 77.6971 340.524 124.155 344.073C170.612 347.622 211.153 312.805 214.705 266.308C218.257 219.812 183.475 179.241 137.017 175.692C90.5596 172.144 50.0189 206.96 46.4671 253.457Z" fill="#BFA2D8"/>
<path fill-rule="evenodd" clip-rule="evenodd" d="M194.966 27.8668C177.975 13.2963 157.095 4.01958 134.9 1.17959C112.705 -1.6604 90.1631 2.06043 70.0529 11.8836C49.9427 21.7068 33.1423 37.2032 21.7219 56.4634C10.3015 75.7236 4.75998 97.9062 5.78011 120.278C-23.1944 114.309 -53.3542 119.814 -78.3598 135.638C-103.365 151.461 -121.269 176.37 -128.307 205.128C-135.259 233.8 -130.797 264.089 -115.869 289.527C-100.94 314.965 -76.713 333.596 -48.3081 341.481C-62.804 367.132 -66.7434 397.426 -59.2903 425.933C-51.8371 454.441 -33.5781 478.918 -8.38789 494.172C16.8603 509.602 47.0782 514.704 75.9894 508.418C104.901 502.133 130.283 484.943 146.865 460.419C159.415 473.934 175.027 484.231 192.385 490.445C209.743 496.659 228.34 498.606 246.609 496.124C264.878 493.641 282.283 486.801 297.36 476.18C312.437 465.559 324.743 451.467 333.242 435.093C343.236 415.751 347.448 393.937 345.376 372.262C343.304 350.588 335.034 329.971 321.558 312.88C348.332 300.538 369.291 278.299 380.038 250.828C390.784 223.357 390.484 192.789 379.199 165.538C367.914 138.287 346.522 116.47 319.51 104.665C292.499 92.8605 261.968 91.9851 234.323 102.223C231.075 73.3569 217.012 46.7989 194.969 27.9039M49.9051 268.905C53.379 313.862 92.8334 347.432 138.05 343.927C183.266 340.421 217.093 301.169 213.619 256.213C210.145 211.256 170.691 177.686 125.475 181.191C80.2585 184.697 46.4313 223.949 49.9051 268.905Z" fill="#BFA2D8"/>
</g>
</svg>
