<svg width="399" height="637" viewBox="0 0 399 637" fill="none" xmlns="http://www.w3.org/2000/svg">
<g opacity="0.3">
<path d="M-26.0766 315.594C-30.4957 373.443 12.7781 423.918 70.5781 428.334C128.378 432.749 178.817 389.433 183.236 331.583C187.655 273.734 144.381 223.259 86.581 218.844C28.781 214.429 -21.6575 257.745 -26.0766 315.594Z" fill="#BFA2D8"/>
<path fill-rule="evenodd" clip-rule="evenodd" d="M158.678 34.9269C137.539 16.7991 111.561 5.25751 83.947 1.72415C56.3326 -1.80922 28.2877 2.82004 3.26765 15.0415C-21.7524 27.263 -42.6545 46.5428 -56.8632 70.5053C-71.0719 94.4679 -77.9663 122.066 -76.6971 149.9C-112.746 142.473 -150.269 149.323 -181.38 169.01C-212.49 188.696 -234.765 219.687 -243.522 255.466C-252.171 291.138 -246.619 328.822 -228.046 360.471C-209.473 392.12 -179.331 415.299 -143.991 425.109C-162.026 457.023 -166.927 494.712 -157.654 530.18C-148.381 565.648 -125.665 596.101 -94.3242 615.079C-62.9118 634.276 -25.3162 640.624 10.6536 632.804C46.6234 624.984 78.2028 603.597 98.8327 573.086C114.447 589.9 133.87 602.712 155.467 610.442C177.063 618.173 200.2 620.596 222.929 617.508C245.658 614.419 267.314 605.909 286.071 592.695C304.829 579.48 320.14 561.948 330.714 541.576C343.147 517.511 348.388 490.372 345.81 463.406C343.232 436.439 332.944 410.789 316.177 389.525C349.487 374.17 375.564 346.501 388.934 312.323C402.305 278.145 401.931 240.115 387.891 206.21C373.851 172.306 347.236 145.162 313.629 130.476C280.023 115.789 242.038 114.7 207.644 127.437C203.603 91.5233 186.106 58.4813 158.682 34.9731M-21.7991 334.814C-17.4771 390.747 31.6099 432.513 87.8656 428.152C144.121 423.79 186.207 374.955 181.885 319.023C177.563 263.09 128.476 221.324 72.2205 225.685C15.9649 230.047 -26.1211 278.882 -21.7991 334.814Z" fill="#BFA2D8"/>
</g>
</svg>
