<svg width="446" height="641" viewBox="0 0 446 641" fill="none" xmlns="http://www.w3.org/2000/svg">
<g opacity="0.3">
<path d="M419.762 321.524C419.762 379.542 372.77 426.574 314.801 426.574C256.833 426.574 209.84 379.542 209.84 321.524C209.84 263.506 256.833 216.474 314.801 216.474C372.77 216.474 419.762 263.506 419.762 321.524Z" fill="#BFA2D8"/>
<path fill-rule="evenodd" clip-rule="evenodd" d="M256.922 27.5998C279.381 11.1348 306.162 1.60533 333.965 0.185556C361.768 -1.23422 389.379 5.51771 413.396 19.6094C437.412 33.7011 456.785 54.517 469.127 79.4922C481.47 104.467 486.242 132.511 482.856 160.167C519.366 155.507 556.258 165.195 585.779 187.195C615.3 209.194 635.149 241.791 641.156 278.133C647.063 314.36 638.656 351.512 617.727 381.654C596.797 411.796 564.977 432.612 528.992 439.702C544.544 472.897 546.56 510.85 534.613 545.508C522.666 580.167 497.695 608.802 465 625.337C432.217 642.086 394.247 645.551 358.978 635.014C323.708 624.477 293.849 600.747 275.603 568.753C258.754 584.329 238.411 595.625 216.288 601.688C194.166 607.751 170.911 608.405 148.484 603.594C126.056 598.783 105.112 588.649 87.4149 574.044C69.7182 559.439 55.7874 540.792 46.7956 519.673C36.2315 494.732 33.0727 467.272 37.6973 440.58C42.3219 413.889 54.5341 389.096 72.872 369.171C40.8276 351.324 16.9347 321.749 6.20614 286.652C-4.52242 251.555 -1.25281 213.663 15.329 180.927C31.9108 148.19 60.516 123.153 95.1431 111.069C129.77 98.984 167.728 100.791 201.052 116.111C207.817 80.61 227.78 48.9966 256.915 27.6456M414.033 340.363C405.463 395.803 353.338 433.71 297.578 425.076C241.818 416.442 203.574 364.543 212.143 309.103C220.713 253.662 272.839 215.756 328.599 224.389C384.359 233.023 422.603 284.922 414.033 340.363Z" fill="#BFA2D8"/>
</g>
</svg>
