<svg width="362" height="588" viewBox="0 0 362 588" fill="none" xmlns="http://www.w3.org/2000/svg">
<g opacity="0.3">
<path d="M-23.1629 294.939C-23.1629 348.16 19.9564 391.304 73.1467 391.304C126.337 391.304 169.456 348.16 169.456 294.939C169.456 241.719 126.337 198.575 73.1467 198.575C19.9564 198.575 -23.1629 241.719 -23.1629 294.939Z" fill="#BFA2D8"/>
<path fill-rule="evenodd" clip-rule="evenodd" d="M126.255 25.3177C105.647 10.2141 81.0738 1.4726 55.5623 0.170213C30.0508 -1.13217 4.71579 5.06149 -17.3211 17.9881C-39.3581 30.9146 -57.1341 50.0093 -68.459 72.9195C-79.7839 95.8296 -84.1629 121.554 -81.0564 146.924C-114.557 142.65 -148.408 151.537 -175.496 171.717C-202.583 191.897 -220.797 221.799 -226.308 255.136C-231.728 288.368 -224.014 322.448 -204.81 350.098C-185.605 377.748 -156.408 396.842 -123.39 403.346C-137.66 433.796 -139.51 468.611 -128.547 500.404C-117.584 532.197 -94.6722 558.464 -64.6723 573.632C-34.5911 588.996 0.248997 592.175 32.6115 582.509C64.9741 572.843 92.3716 551.076 109.114 521.727C124.574 536.015 143.24 546.376 163.54 551.938C183.839 557.5 205.176 558.1 225.755 553.687C246.334 549.274 265.552 539.977 281.79 526.58C298.028 513.183 310.811 496.078 319.062 476.705C328.755 453.826 331.653 428.636 327.41 404.152C323.166 379.667 311.961 356.925 295.135 338.647C324.538 322.275 346.461 295.146 356.305 262.951C366.15 230.756 363.15 195.997 347.935 165.967C332.719 135.937 306.472 112.97 274.699 101.885C242.926 90.7997 208.097 92.4575 177.519 106.511C171.312 73.9449 152.995 44.9454 126.261 25.3598M-17.9061 312.22C-10.0427 363.077 37.7864 397.849 88.9504 389.929C140.114 382.009 175.206 334.402 167.343 283.545C159.479 232.688 111.65 197.916 60.4863 205.836C9.32232 213.756 -25.7695 261.364 -17.9061 312.22Z" fill="#BFA2D8"/>
</g>
</svg>
