<svg width="435" height="661" viewBox="0 0 435 661" fill="none" xmlns="http://www.w3.org/2000/svg">
<g opacity="0.3">
<path d="M2.18134 331.556C2.18134 391.384 50.6357 439.884 110.407 439.884C170.179 439.884 218.633 391.384 218.633 331.556C218.633 271.728 170.179 223.228 110.407 223.228C50.6357 223.228 2.18134 271.728 2.18134 331.556Z" fill="#BFA2D8"/>
<path fill-rule="evenodd" clip-rule="evenodd" d="M170.086 28.4609C146.929 11.4822 119.315 1.65542 90.6471 0.191345C61.9791 -1.27273 33.5094 5.68987 8.74591 20.2213C-16.0176 34.7527 -35.9931 56.218 -48.7192 81.9724C-61.4453 107.727 -66.3661 136.645 -62.8752 165.164C-100.52 160.359 -138.56 170.35 -168.999 193.035C-199.438 215.721 -219.905 249.335 -226.098 286.811C-232.189 324.168 -223.521 362.48 -201.941 393.562C-180.36 424.645 -147.55 446.11 -110.446 453.421C-126.482 487.652 -128.561 526.789 -116.242 562.529C-103.923 598.269 -78.1757 627.797 -44.464 644.848C-10.6609 662.119 28.49 665.693 64.8567 654.827C101.223 643.962 132.011 619.491 150.824 586.499C168.198 602.561 189.174 614.209 211.984 620.461C234.795 626.714 258.773 627.388 281.898 622.427C305.023 617.466 326.619 607.015 344.866 591.955C363.113 576.894 377.477 557.666 386.749 535.888C397.642 510.168 400.899 481.851 396.13 454.327C391.362 426.803 378.77 401.237 359.861 380.69C392.902 362.286 417.539 331.788 428.601 295.596C439.663 259.404 436.292 220.33 419.194 186.572C402.097 152.814 372.602 126.996 336.898 114.534C301.193 102.072 262.055 103.936 227.694 119.734C220.719 83.1251 200.135 50.5253 170.094 28.5082M8.08858 350.982C16.9249 408.153 70.6719 447.242 128.166 438.339C185.661 429.436 225.094 375.918 216.258 318.747C207.422 261.576 153.675 222.488 96.1804 231.391C38.6859 240.294 -0.747716 293.812 8.08858 350.982Z" fill="#BFA2D8"/>
</g>
</svg>
