<svg width="273" height="359" viewBox="0 0 273 359" fill="none" xmlns="http://www.w3.org/2000/svg">
<g opacity="0.3">
<path d="M235.015 180.074C235.015 212.567 208.705 238.908 176.249 238.908C143.794 238.908 117.484 212.567 117.484 180.074C117.484 147.58 143.794 121.239 176.249 121.239C208.705 121.239 235.015 147.58 235.015 180.074Z" fill="#BFA2D8"/>
<path fill-rule="evenodd" clip-rule="evenodd" d="M143.844 15.4576C156.419 6.23617 171.413 0.899085 186.979 0.103923C202.545 -0.691239 218.004 3.09026 231.45 10.9825C244.896 18.8747 255.743 30.5329 262.653 44.5206C269.563 58.5082 272.235 74.2142 270.339 89.7035C290.78 87.0939 311.435 92.5198 327.963 104.841C344.491 117.162 355.605 135.418 358.967 155.772C362.275 176.061 357.568 196.869 345.85 213.75C334.132 230.632 316.317 242.29 296.17 246.26C304.877 264.852 306.006 286.108 299.317 305.519C292.628 324.93 278.647 340.967 260.342 350.228C241.988 359.608 220.729 361.549 200.983 355.648C181.236 349.746 164.519 336.456 154.304 318.537C144.87 327.261 133.48 333.587 121.095 336.983C108.709 340.379 95.6891 340.745 83.1323 338.05C70.5756 335.356 58.8494 329.68 48.9415 321.5C39.0335 313.321 31.234 302.877 26.1997 291.049C20.2851 277.081 18.5166 261.701 21.1058 246.752C23.695 231.803 30.5323 217.918 40.7992 206.759C22.8584 196.763 9.48133 180.2 3.47467 160.543C-2.53199 140.887 -0.701415 119.665 8.58233 101.33C17.8661 82.9957 33.8814 68.9734 53.2683 62.2053C72.6552 55.4372 93.9068 56.4494 112.564 65.0294C116.352 45.1466 127.528 27.4411 143.841 15.4833M231.807 190.624C227.009 221.675 197.825 242.904 166.607 238.069C135.388 233.234 113.976 204.167 118.774 173.117C123.572 142.066 152.756 120.837 183.974 125.672C215.193 130.507 236.605 159.574 231.807 190.624Z" fill="#BFA2D8"/>
</g>
</svg>
