<svg width="510" height="622" viewBox="0 0 510 622" fill="none" xmlns="http://www.w3.org/2000/svg">
<g opacity="0.3">
<path d="M102.641 311.994C102.641 368.292 148.245 413.93 204.501 413.93C260.756 413.93 306.361 368.292 306.361 311.994C306.361 255.696 260.756 210.057 204.501 210.057C148.245 210.057 102.641 255.696 102.641 311.994Z" fill="#BFA2D8"/>
<path fill-rule="evenodd" clip-rule="evenodd" d="M260.67 26.7817C238.874 10.8047 212.885 1.55775 185.903 0.180056C158.922 -1.19763 132.127 5.35416 108.82 19.0282C85.5129 32.7022 66.7124 52.901 54.7349 77.1359C42.7574 101.371 38.1261 128.583 41.4116 155.419C5.98093 150.898 -29.8215 160.299 -58.4699 181.646C-87.1183 202.993 -106.381 234.624 -112.21 269.889C-117.943 305.042 -109.785 341.093 -89.4735 370.341C-69.1623 399.59 -38.2824 419.789 -3.36123 426.668C-18.4535 458.879 -20.4102 495.708 -8.81585 529.339C2.77846 562.97 27.0111 590.756 58.7398 606.801C90.5545 623.053 127.402 626.416 161.63 616.192C195.857 605.967 224.834 582.941 242.541 551.895C258.892 567.009 278.634 577.97 300.103 583.853C321.572 589.737 344.139 590.371 365.904 585.703C387.669 581.035 407.994 571.2 425.168 557.029C442.342 542.857 455.861 524.762 464.587 504.269C474.839 480.067 477.905 453.421 473.417 427.521C468.929 401.621 457.077 377.563 439.281 358.229C470.379 340.91 493.566 312.212 503.977 278.155C514.389 244.099 511.216 207.33 495.124 175.564C479.032 143.798 451.272 119.503 417.668 107.776C384.064 96.05 347.228 97.8037 314.888 112.669C308.324 78.2206 288.951 47.5443 260.676 26.8261M108.201 330.274C116.518 384.071 167.103 420.854 221.215 412.476C275.328 404.098 312.442 353.738 304.125 299.94C295.809 246.143 245.223 209.36 191.111 217.738C136.999 226.116 99.8845 276.476 108.201 330.274Z" fill="#BFA2D8"/>
</g>
</svg>
