<svg width="510" height="685" viewBox="0 0 510 685" fill="none" xmlns="http://www.w3.org/2000/svg">
<g opacity="0.3">
<path d="M448.486 343.594C448.486 405.594 398.278 455.855 336.343 455.855C274.408 455.855 224.199 405.594 224.199 343.594C224.199 281.594 274.408 231.333 336.343 231.333C398.278 231.333 448.486 281.594 448.486 343.594Z" fill="#BFA2D8"/>
<path fill-rule="evenodd" clip-rule="evenodd" d="M274.503 29.4943C298.499 11.8991 327.112 1.71552 356.818 0.198293C386.524 -1.31894 416.024 5.89646 441.684 20.9555C467.344 36.0145 488.043 58.2592 501.229 84.9487C514.416 111.638 519.515 141.607 515.898 171.161C554.906 166.182 594.323 176.535 625.864 200.044C657.404 223.553 678.612 258.388 685.029 297.225C691.341 335.939 682.359 375.641 659.997 407.852C637.635 440.063 603.638 462.308 565.191 469.884C581.807 505.358 583.961 545.916 571.196 582.954C558.431 619.991 531.752 650.592 496.82 668.262C461.793 686.16 421.225 689.864 383.542 678.603C345.859 667.343 313.957 641.984 294.463 607.794C276.46 624.439 254.725 636.51 231.089 642.989C207.452 649.469 182.607 650.168 158.644 645.027C134.682 639.885 112.304 629.055 93.3967 613.448C74.489 597.841 59.6048 577.914 49.9978 555.345C38.7108 528.691 35.3358 499.347 40.2769 470.823C45.218 442.299 58.2658 415.805 77.8585 394.512C43.6214 375.44 18.0935 343.835 6.63083 306.329C-4.83188 268.822 -1.33853 228.33 16.3779 193.346C34.0944 158.362 64.6571 131.607 101.654 118.693C138.65 105.779 179.205 107.71 214.81 124.081C222.038 86.1432 243.367 52.3598 274.496 29.5433M442.365 363.726C433.209 422.973 377.516 463.481 317.941 454.254C258.365 445.028 217.504 389.567 226.66 330.32C235.816 271.074 291.509 230.566 351.085 239.792C410.66 249.018 451.521 304.48 442.365 363.726Z" fill="#BFA2D8"/>
</g>
</svg>
