<svg width="620" height="765" viewBox="0 0 620 765" fill="none" xmlns="http://www.w3.org/2000/svg">
<g opacity="0.3">
<path d="M119.288 383.722C119.288 452.963 175.343 509.094 244.491 509.094C313.638 509.094 369.693 452.963 369.693 383.722C369.693 314.481 313.638 258.35 244.491 258.35C175.343 258.35 119.288 314.481 119.288 383.722Z" fill="#BFA2D8"/>
<path fill-rule="evenodd" clip-rule="evenodd" d="M313.531 32.9389C286.741 13.2888 254.796 1.91588 221.631 0.221451C188.466 -1.47298 155.531 6.5851 126.883 23.4028C98.2345 40.2206 75.1256 65.0632 60.4033 94.8697C45.6809 124.676 39.9883 158.145 44.0267 191.151C0.476532 185.59 -43.5306 197.152 -78.7443 223.407C-113.958 249.662 -137.636 288.564 -144.8 331.937C-151.846 375.172 -141.819 419.511 -116.853 455.484C-91.887 491.457 -53.9305 516.3 -11.0065 524.761C-29.5575 564.377 -31.9625 609.673 -17.7112 651.036C-3.45983 692.399 26.3262 726.573 65.326 746.307C104.432 766.296 149.724 770.432 191.795 757.856C233.866 745.281 269.483 716.961 291.248 678.778C311.347 697.367 335.613 710.847 362.001 718.083C388.39 725.319 416.129 726.1 442.882 720.358C469.635 714.617 494.618 702.521 515.727 685.091C536.837 667.662 553.454 645.407 564.18 620.203C576.781 590.436 580.549 557.664 575.033 525.809C569.516 493.954 554.949 464.366 533.075 440.587C571.299 419.287 599.8 383.991 612.597 342.104C625.395 300.218 621.494 254.996 601.715 215.926C581.935 176.857 547.814 146.977 506.509 132.554C465.204 118.132 419.926 120.289 380.175 138.572C372.106 96.2038 348.294 58.4748 313.54 32.9936M126.122 406.205C136.344 472.371 198.522 517.61 265.036 507.306C331.549 497.002 377.168 435.064 366.946 368.898C356.723 302.732 294.545 257.493 228.032 267.797C161.519 278.101 115.9 340.039 126.122 406.205Z" fill="#BFA2D8"/>
</g>
</svg>
