<svg width="622" height="729" viewBox="0 0 622 729" fill="none" xmlns="http://www.w3.org/2000/svg">
<g opacity="0.3">
<path d="M144.79 365.665C144.79 431.647 198.214 485.137 264.116 485.137C330.018 485.137 383.442 431.647 383.442 365.665C383.442 299.682 330.018 246.193 264.116 246.193C198.214 246.193 144.79 299.682 144.79 365.665Z" fill="#BFA2D8"/>
<path fill-rule="evenodd" clip-rule="evenodd" d="M329.916 31.3888C304.383 12.6634 273.937 1.82572 242.329 0.21103C210.721 -1.40366 179.331 6.27521 152.028 22.3015C124.724 38.3278 102.7 62.0014 88.6686 90.4053C74.6372 118.809 69.2118 150.702 73.0607 182.155C31.5546 176.856 -10.3871 187.874 -43.948 212.894C-77.5089 237.913 -100.075 274.985 -106.903 316.317C-113.619 357.517 -104.062 399.77 -80.2679 434.05C-56.4738 468.33 -20.2988 492.003 20.6105 500.066C2.93022 537.818 0.638087 580.983 14.2205 620.399C27.803 659.815 56.1909 692.381 93.3602 711.187C130.63 730.235 173.797 734.176 213.893 722.192C253.99 710.209 287.935 683.221 308.678 646.835C327.834 664.549 350.961 677.395 376.111 684.291C401.261 691.187 427.698 691.93 453.195 686.459C478.692 680.988 502.503 669.462 522.622 652.852C542.74 636.242 558.578 615.035 568.8 591.017C580.81 562.651 584.401 531.421 579.144 501.065C573.886 470.71 560.002 442.514 539.155 419.853C575.585 399.556 602.748 365.921 614.944 326.005C627.141 286.09 623.424 242.996 604.573 205.765C585.722 168.534 553.202 140.06 513.836 126.317C474.47 112.573 431.317 114.628 393.432 132.051C385.741 91.6765 363.046 55.7231 329.924 31.4409M151.303 387.09C161.045 450.142 220.305 493.252 283.696 483.433C347.087 473.614 390.566 414.59 380.823 351.538C371.08 288.486 311.821 245.376 248.43 255.195C185.038 265.014 141.56 324.037 151.303 387.09Z" fill="#BFA2D8"/>
</g>
</svg>
