<svg width="630" height="729" viewBox="0 0 630 729" fill="none" xmlns="http://www.w3.org/2000/svg">
<g opacity="0.3">
<path d="M152.79 365.665C152.79 431.647 206.214 485.137 272.116 485.137C338.018 485.137 391.442 431.647 391.442 365.665C391.442 299.682 338.018 246.193 272.116 246.193C206.214 246.193 152.79 299.682 152.79 365.665Z" fill="#BFA2D8"/>
<path fill-rule="evenodd" clip-rule="evenodd" d="M337.916 31.3888C312.383 12.6634 281.937 1.82572 250.329 0.21103C218.721 -1.40366 187.331 6.27521 160.028 22.3015C132.724 38.3278 110.7 62.0014 96.6686 90.4053C82.6372 118.809 77.2118 150.702 81.0607 182.155C39.5546 176.856 -2.38707 187.874 -35.948 212.894C-69.5089 237.913 -92.0751 274.985 -98.9033 316.317C-105.619 357.517 -96.062 399.77 -72.2679 434.05C-48.4738 468.33 -12.2988 492.003 28.6105 500.066C10.9302 537.818 8.63809 580.983 22.2205 620.399C35.803 659.815 64.1909 692.381 101.36 711.187C138.63 730.235 181.797 734.176 221.893 722.192C261.99 710.209 295.935 683.221 316.678 646.835C335.834 664.549 358.961 677.395 384.111 684.291C409.261 691.187 435.698 691.93 461.195 686.459C486.692 680.988 510.503 669.462 530.622 652.852C550.74 636.242 566.578 615.035 576.8 591.017C588.81 562.651 592.401 531.421 587.144 501.065C581.886 470.71 568.002 442.514 547.155 419.853C583.585 399.556 610.748 365.921 622.944 326.005C635.141 286.09 631.424 242.996 612.573 205.765C593.722 168.534 561.202 140.06 521.836 126.317C482.47 112.573 439.317 114.628 401.432 132.051C393.741 91.6765 371.046 55.7231 337.924 31.4409M159.303 387.09C169.045 450.142 228.305 493.252 291.696 483.433C355.087 473.614 398.566 414.59 388.823 351.538C379.08 288.486 319.821 245.376 256.43 255.195C193.038 265.014 149.56 324.037 159.303 387.09Z" fill="#BFA2D8"/>
</g>
</svg>
