<svg width="530" height="729" viewBox="0 0 530 729" fill="none" xmlns="http://www.w3.org/2000/svg">
<g opacity="0.3">
<path d="M477.21 365.665C477.21 431.647 423.786 485.137 357.884 485.137C291.982 485.137 238.558 431.647 238.558 365.665C238.558 299.682 291.982 246.193 357.884 246.193C423.786 246.193 477.21 299.682 477.21 365.665Z" fill="#BFA2D8"/>
<path fill-rule="evenodd" clip-rule="evenodd" d="M292.084 31.3888C317.617 12.6634 348.063 1.82572 379.671 0.21103C411.279 -1.40366 442.669 6.27521 469.972 22.3015C497.276 38.3278 519.3 62.0014 533.331 90.4053C547.363 118.809 552.788 150.702 548.939 182.155C590.445 176.856 632.387 187.874 665.948 212.894C699.509 237.913 722.075 274.985 728.903 316.317C735.619 357.517 726.062 399.77 702.268 434.05C678.474 468.33 642.299 492.003 601.39 500.066C619.07 537.818 621.362 580.983 607.779 620.399C594.197 659.815 565.809 692.381 528.64 711.187C491.37 730.235 448.203 734.176 408.107 722.192C368.01 710.209 334.065 683.221 313.322 646.835C294.166 664.549 271.039 677.395 245.889 684.291C220.739 691.187 194.302 691.93 168.805 686.459C143.308 680.988 119.497 669.462 99.3784 652.852C79.2598 636.242 63.4223 615.035 53.2 591.017C41.1901 562.651 37.5989 531.421 42.8565 501.065C48.1141 470.71 61.9976 442.514 82.8451 419.853C46.4152 399.556 19.2524 365.921 7.05551 326.005C-5.14135 286.09 -1.42426 242.996 17.4269 205.765C36.2781 168.534 68.7982 140.06 108.164 126.317C147.53 112.573 190.683 114.628 228.568 132.051C236.259 91.6765 258.954 55.7231 292.076 31.4409M470.697 387.09C460.955 450.142 401.695 493.252 338.304 483.433C274.913 473.614 231.434 414.59 241.177 351.538C250.92 288.486 310.179 245.376 373.57 255.195C436.962 265.014 480.44 324.037 470.697 387.09Z" fill="#BFA2D8"/>
</g>
</svg>
