<svg width="397" height="516" viewBox="0 0 397 516" fill="none" xmlns="http://www.w3.org/2000/svg">
<g opacity="0.3">
<path d="M223.629 235.83C236.655 280.726 210.783 327.693 165.84 340.733C120.898 353.773 73.9051 327.948 60.8784 283.052C47.8517 238.155 73.7243 191.188 118.667 178.148C163.609 165.108 210.602 190.933 223.629 235.83Z" fill="#BFA2D8"/>
<path fill-rule="evenodd" clip-rule="evenodd" d="M31.3857 45.0088C45.1009 27.2153 63.7241 13.8167 84.9609 6.46367C106.198 -0.889331 129.12 -1.87543 150.904 3.62687C172.687 9.12917 192.381 20.8795 207.557 37.43C222.734 53.9805 232.73 74.6082 236.315 96.7714C263.574 84.9529 294.352 84.151 322.178 94.5342C350.005 104.917 372.713 125.677 385.53 152.45C398.243 179.155 400.068 209.796 390.609 237.829C381.15 265.862 361.154 289.129 334.848 302.71C354.358 324.899 364.443 353.816 362.962 383.323C361.482 412.831 348.552 440.607 326.917 460.757C305.261 481.093 276.601 492.316 246.891 492.096C217.181 491.876 188.704 480.229 167.374 459.575C157.808 475.419 144.573 488.736 128.783 498.404C112.993 508.073 95.1109 513.81 76.6428 515.132C58.1747 516.454 39.6613 513.323 22.6621 506.002C5.66287 498.681 -9.32442 487.385 -21.0375 473.065C-34.8278 456.14 -43.4424 435.601 -45.8501 413.906C-48.2577 392.21 -44.3564 370.278 -34.6131 350.734C-63.4639 344.131 -88.6282 326.62 -104.826 301.873C-121.024 277.127 -126.997 247.069 -121.492 218.006C-115.987 188.943 -99.431 163.134 -75.2984 145.993C-51.1658 128.852 -21.3318 121.712 7.94406 126.071C5.21766 97.0765 13.5964 68.1221 31.3906 45.0458M223.417 251.697C229.221 296.527 197.32 337.586 152.151 343.448C106.982 349.31 65.6793 317.751 59.8752 272.921C54.0711 228.091 85.9724 187.032 131.141 181.17C176.31 175.308 217.613 206.866 223.417 251.697Z" fill="#BFA2D8"/>
</g>
</svg>
