<svg width="395" height="601" viewBox="0 0 395 601" fill="none" xmlns="http://www.w3.org/2000/svg">
<g opacity="0.3">
<path d="M394.302 301.46C394.302 355.857 350.16 399.955 295.707 399.955C241.255 399.955 197.113 355.857 197.113 301.46C197.113 247.063 241.255 202.965 295.707 202.965C350.16 202.965 394.302 247.063 394.302 301.46Z" fill="#BFA2D8"/>
<path fill-rule="evenodd" clip-rule="evenodd" d="M241.339 25.8774C262.436 10.4399 287.592 1.50513 313.709 0.173949C339.826 -1.15723 365.762 5.17336 388.322 18.3857C410.882 31.5981 429.08 51.115 440.673 74.5316C452.267 97.9483 456.75 124.242 453.57 150.172C487.865 145.803 522.52 154.887 550.25 175.513C577.98 196.14 596.626 226.702 602.268 260.777C607.816 294.743 599.92 329.577 580.26 357.838C560.599 386.099 530.709 405.616 496.907 412.263C511.516 443.387 513.41 478.972 502.187 511.467C490.964 543.963 467.508 570.811 436.797 586.314C406.002 602.018 370.335 605.267 337.204 595.388C304.074 585.508 276.026 563.259 258.887 533.262C243.059 547.866 223.95 558.456 203.17 564.141C182.389 569.826 160.545 570.439 139.478 565.928C118.41 561.418 98.7363 551.916 82.113 538.222C65.4897 524.529 52.4037 507.045 43.9574 487.244C34.034 463.859 31.0667 438.113 35.4109 413.087C39.755 388.061 51.2265 364.816 68.4521 346.134C38.3513 329.401 15.9076 301.671 5.82974 268.764C-4.2481 235.857 -1.1768 200.33 14.3993 169.636C29.9753 138.943 56.8455 115.468 89.3724 104.138C121.899 92.8072 157.555 94.5016 188.858 108.865C195.212 75.5797 213.964 45.9391 241.332 25.9204M388.921 319.123C380.871 371.104 331.907 406.645 279.529 398.55C227.151 390.455 191.226 341.795 199.276 289.814C207.326 237.833 256.29 202.292 308.668 210.387C361.046 218.482 396.971 267.142 388.921 319.123Z" fill="#BFA2D8"/>
</g>
</svg>
