<svg width="510" height="625" viewBox="0 0 510 625" fill="none" xmlns="http://www.w3.org/2000/svg">
<g opacity="0.3">
<path d="M409.97 313.498C409.97 370.068 364.074 415.926 307.457 415.926C250.841 415.926 204.945 370.068 204.945 313.498C204.945 256.929 250.841 211.07 307.457 211.07C364.074 211.07 409.97 256.929 409.97 313.498Z" fill="#BFA2D8"/>
<path fill-rule="evenodd" clip-rule="evenodd" d="M250.929 26.9108C272.864 10.8568 299.02 1.56526 326.174 0.180924C353.329 -1.20341 380.296 5.37998 403.752 19.12C427.208 32.8599 446.129 53.1562 458.183 77.508C470.238 101.86 474.899 129.203 471.592 156.169C507.25 151.626 543.282 161.072 572.114 182.522C600.946 203.972 620.333 235.755 626.199 271.191C631.968 306.513 623.758 342.738 603.316 372.128C582.875 401.517 551.797 421.814 516.652 428.726C531.841 461.093 533.81 498.099 522.142 531.892C510.473 565.685 486.085 593.606 454.153 609.728C422.134 626.059 385.05 629.438 350.603 619.164C316.156 608.89 286.994 585.752 269.174 554.557C252.717 569.744 232.849 580.757 211.243 586.669C189.636 592.581 166.924 593.219 145.02 588.528C123.115 583.837 102.66 573.955 85.3757 559.715C68.0918 545.475 54.4859 527.293 45.704 506.702C35.3863 482.383 32.3011 455.608 36.8179 429.583C41.3347 403.558 53.2619 379.384 71.172 359.956C39.8752 342.555 16.5396 313.718 6.06137 279.497C-4.41692 245.276 -1.22358 208.33 14.9714 176.411C31.1664 144.491 59.1043 120.079 92.9236 108.296C126.743 96.5133 163.815 98.2754 196.362 113.213C202.969 78.5979 222.466 47.7736 250.922 26.9555M404.375 331.867C396.005 385.924 345.095 422.884 290.636 414.466C236.177 406.047 198.825 355.444 207.194 301.387C215.564 247.33 266.474 210.37 320.933 218.788C375.392 227.207 412.744 277.81 404.375 331.867Z" fill="#BFA2D8"/>
</g>
</svg>
