<svg width="572" height="857" viewBox="0 0 572 857" fill="none" xmlns="http://www.w3.org/2000/svg">
<g opacity="0.3">
<path d="M9.9233 429.869C9.9233 507.437 72.8482 570.318 150.47 570.318C228.092 570.318 291.017 507.437 291.017 429.869C291.017 352.301 228.092 289.42 150.47 289.42C72.8482 289.42 9.9233 352.301 9.9233 429.869Z" fill="#BFA2D8"/>
<path fill-rule="evenodd" clip-rule="evenodd" d="M227.972 36.9001C197.899 14.8869 162.038 2.14628 124.809 0.248083C87.5792 -1.65012 50.6073 7.37703 18.4483 26.2173C-13.7106 45.0575 -39.6516 72.8878 -56.1783 106.279C-72.705 139.67 -79.0953 177.163 -74.5619 214.139C-123.449 207.909 -172.85 220.862 -212.379 250.274C-251.908 279.687 -278.488 323.268 -286.53 371.857C-294.44 420.291 -283.184 469.962 -255.158 510.262C-227.133 550.561 -184.524 578.391 -136.34 587.87C-157.164 632.25 -159.864 682.993 -143.866 729.33C-127.868 775.668 -94.4318 813.952 -50.6523 836.059C-6.75416 858.451 44.0888 863.085 91.3162 848.997C138.544 834.91 178.525 803.183 202.957 760.408C225.52 781.233 252.759 796.334 282.382 804.441C312.005 812.547 343.144 813.421 373.175 806.989C403.207 800.557 431.252 787.008 454.948 767.482C478.645 747.956 497.299 723.025 509.339 694.789C523.485 661.443 527.715 624.73 521.522 589.044C515.329 553.358 498.977 520.212 474.422 493.572C517.33 469.711 549.324 430.17 563.69 383.246C578.056 336.322 573.678 285.662 551.474 241.894C529.27 198.126 490.967 164.652 444.6 148.496C398.233 132.339 347.406 134.755 302.784 155.237C293.725 107.773 266.994 65.5071 227.981 36.9614M17.5947 455.056C29.0699 529.179 98.868 579.858 173.533 568.315C248.197 556.772 299.408 487.385 287.932 413.262C276.457 339.139 206.659 288.46 131.994 300.003C57.3297 311.546 6.11949 380.933 17.5947 455.056Z" fill="#BFA2D8"/>
</g>
</svg>
