<svg width="488" height="676" viewBox="0 0 488 676" fill="none" xmlns="http://www.w3.org/2000/svg">
<g opacity="0.3">
<path d="M45.3891 339.08C45.3891 400.265 94.9397 449.866 156.063 449.866C217.187 449.866 266.738 400.265 266.738 339.08C266.738 277.894 217.187 228.294 156.063 228.294C94.9397 228.294 45.3891 277.894 45.3891 339.08Z" fill="#BFA2D8"/>
<path fill-rule="evenodd" clip-rule="evenodd" d="M217.093 29.1068C193.412 11.7428 165.173 1.69298 135.856 0.195687C106.54 -1.30161 77.4259 5.81899 52.1022 20.6801C26.7784 35.5413 6.35097 57.4937 -6.66306 83.8326C-19.6771 110.171 -24.7092 139.746 -21.1394 168.912C-59.6361 163.998 -98.5368 174.216 -129.664 197.416C-160.792 220.616 -181.722 254.993 -188.055 293.32C-194.284 331.525 -185.42 370.705 -163.351 402.493C-141.282 434.281 -107.73 456.234 -69.7867 463.71C-86.1851 498.718 -88.311 538.744 -75.7134 575.294C-63.1157 611.845 -36.786 642.044 -2.31159 659.482C32.2563 677.145 72.2929 680.8 109.482 669.687C146.672 658.575 178.156 633.549 197.395 599.809C215.162 616.235 236.612 628.147 259.939 634.541C283.265 640.936 307.786 641.625 331.434 636.552C355.083 631.478 377.167 620.79 395.827 605.388C414.487 589.986 429.176 570.321 438.657 548.048C449.796 521.745 453.127 492.786 448.251 464.637C443.374 436.488 430.497 410.342 411.161 389.329C444.95 370.507 470.143 339.318 481.456 302.304C492.769 265.291 489.321 225.33 471.837 190.806C454.352 156.282 424.19 129.877 387.678 117.133C351.166 104.389 311.142 106.295 276.004 122.451C268.871 85.0114 247.821 51.6719 217.1 29.1551M51.43 358.947C60.4662 417.415 115.429 457.391 174.224 448.286C233.02 439.181 273.345 384.448 264.309 325.98C255.273 267.512 200.31 227.536 141.515 236.642C82.7195 245.747 42.3937 300.479 51.43 358.947Z" fill="#BFA2D8"/>
</g>
</svg>
