<svg width="576" height="823" viewBox="0 0 576 823" fill="none" xmlns="http://www.w3.org/2000/svg">
<g opacity="0.3">
<path d="M539.228 412.815C539.228 487.305 478.861 547.692 404.395 547.692C329.928 547.692 269.561 487.305 269.561 412.815C269.561 338.324 329.928 277.938 404.395 277.938C478.861 277.938 539.228 338.324 539.228 412.815Z" fill="#BFA2D8"/>
<path fill-rule="evenodd" clip-rule="evenodd" d="M330.043 35.4362C358.894 14.2963 393.297 2.06113 429.013 0.238241C464.729 -1.58465 500.198 7.08436 531.05 25.1772C561.901 43.27 586.788 69.9961 602.643 102.062C618.497 134.129 624.628 170.135 620.279 205.643C667.179 199.661 714.571 212.1 752.494 240.345C790.416 268.59 815.915 310.443 823.631 357.104C831.219 403.617 820.42 451.317 793.534 490.018C766.647 528.718 725.771 555.444 679.545 564.547C699.523 607.167 702.113 655.897 686.766 700.395C671.418 744.894 639.341 781.66 597.341 802.89C555.228 824.394 506.451 828.844 461.144 815.315C415.836 801.786 377.48 771.318 354.041 730.24C332.396 750.239 306.263 764.741 277.845 772.526C249.426 780.311 219.553 781.15 190.742 774.973C161.932 768.797 135.027 755.785 112.294 737.033C89.5603 718.282 71.6646 694.34 60.1138 667.225C46.5431 635.202 42.4852 599.945 48.4261 565.675C54.3669 531.405 70.0547 499.573 93.6116 473.99C52.4473 451.076 21.7544 413.104 7.97243 368.042C-5.80951 322.979 -1.60936 274.329 19.6917 232.297C40.9927 190.266 77.7391 158.12 122.221 142.604C166.703 127.089 215.464 129.409 258.273 149.079C266.963 103.498 292.607 62.9082 330.034 35.495M531.869 437.002C520.86 508.184 453.899 556.853 382.269 545.768C310.64 534.683 261.511 468.049 272.52 396.867C283.529 325.684 350.49 277.015 422.119 288.101C493.749 299.186 542.877 365.82 531.869 437.002Z" fill="#BFA2D8"/>
</g>
</svg>
