<svg width="553" height="778" viewBox="0 0 553 778" fill="none" xmlns="http://www.w3.org/2000/svg">
<g opacity="0.3">
<path d="M509.851 390.243C509.851 460.661 452.773 517.745 382.363 517.745C311.954 517.745 254.876 460.661 254.876 390.243C254.876 319.825 311.954 262.741 382.363 262.741C452.773 262.741 509.851 319.825 509.851 390.243Z" fill="#BFA2D8"/>
<path fill-rule="evenodd" clip-rule="evenodd" d="M312.063 33.4986C339.341 13.5146 371.87 1.94843 405.64 0.225214C439.411 -1.49801 472.947 6.697 502.118 23.8005C531.289 40.904 554.82 66.1688 569.811 96.4819C584.802 126.795 590.599 160.832 586.486 194.399C630.832 188.744 675.642 200.502 711.498 227.203C747.355 253.904 771.465 293.468 778.76 337.578C785.934 381.548 775.724 426.64 750.303 463.225C724.881 499.809 686.232 525.074 642.524 533.678C661.414 573.968 663.863 620.034 649.351 662.099C634.84 704.165 604.51 738.92 564.798 758.989C524.979 779.318 478.86 783.524 436.021 770.735C393.182 757.946 356.915 729.144 334.753 690.312C314.287 709.217 289.578 722.927 262.708 730.286C235.837 737.645 207.592 738.439 180.351 732.599C153.11 726.76 127.671 714.46 106.176 696.734C84.6811 679.007 67.7604 656.375 56.8388 630.742C44.0074 600.47 40.1707 567.141 45.7879 534.745C51.405 502.348 66.2382 472.257 88.5117 448.074C49.59 426.412 20.5692 390.516 7.5381 347.918C-5.49301 305.32 -1.52168 259.329 18.6189 219.596C38.7595 179.862 73.5039 149.474 115.563 134.807C157.621 120.14 203.726 122.333 244.202 140.927C252.419 97.8386 276.666 59.4685 312.054 33.5542M502.893 413.108C492.484 480.398 429.171 526.406 361.444 515.927C293.716 505.448 247.264 442.457 257.673 375.167C268.082 307.877 331.395 261.869 399.122 272.348C466.85 282.827 513.302 345.818 502.893 413.108Z" fill="#BFA2D8"/>
</g>
</svg>
