<svg width="462" height="737" viewBox="0 0 462 737" fill="none" xmlns="http://www.w3.org/2000/svg">
<g opacity="0.3">
<path d="M-21.0856 369.677C-21.0857 436.384 32.9961 490.46 99.7094 490.46C166.423 490.46 220.504 436.384 220.504 369.677C220.504 302.971 166.423 248.894 99.7094 248.894C32.9962 248.894 -21.0856 302.971 -21.0856 369.677Z" fill="#BFA2D8"/>
<path fill-rule="evenodd" clip-rule="evenodd" d="M166.32 31.7332C140.473 12.8024 109.652 1.84572 77.6545 0.213312C45.657 -1.4191 13.8809 6.34404 -13.7586 22.5462C-41.3982 38.7484 -63.6936 62.6817 -77.8977 91.3973C-92.1018 120.113 -97.594 152.356 -93.6978 184.154C-135.715 178.797 -178.173 189.936 -212.147 215.23C-246.121 240.524 -268.965 278.003 -275.877 319.788C-282.675 361.44 -273.001 404.157 -248.914 438.813C-224.827 473.469 -188.207 497.403 -146.794 505.554C-164.692 543.72 -167.012 587.358 -153.262 627.207C-139.513 667.056 -110.775 699.98 -73.1483 718.991C-35.4194 738.248 8.2784 742.233 48.8687 730.118C89.459 718.003 123.822 690.719 144.82 653.933C164.212 671.842 187.624 684.829 213.083 691.8C238.543 698.772 265.306 699.523 291.117 693.992C316.928 688.461 341.032 676.808 361.398 660.016C381.764 643.224 397.797 621.784 408.145 597.503C420.303 568.826 423.938 537.253 418.616 506.564C413.294 475.875 399.239 447.37 378.135 424.46C415.013 403.94 442.511 369.936 454.858 329.583C467.205 289.229 463.442 245.663 444.359 208.023C425.275 170.384 392.355 141.597 352.504 127.703C312.653 113.808 268.969 115.886 230.618 133.5C222.832 92.6826 199.858 56.3346 166.328 31.7859M-14.4923 391.337C-4.62982 455.081 55.3592 498.665 119.531 488.738C183.703 478.811 227.716 419.14 217.854 355.396C207.991 291.652 148.002 248.069 83.8303 257.995C19.6585 267.922 -24.3549 327.593 -14.4923 391.337Z" fill="#BFA2D8"/>
</g>
</svg>
