<svg width="385" height="588" viewBox="0 0 385 588" fill="none" xmlns="http://www.w3.org/2000/svg">
<g opacity="0.3">
<path d="M385.163 294.939C385.163 348.16 342.044 391.304 288.853 391.304C235.663 391.304 192.544 348.16 192.544 294.939C192.544 241.719 235.663 198.575 288.853 198.575C342.044 198.575 385.163 241.719 385.163 294.939Z" fill="#BFA2D8"/>
<path fill-rule="evenodd" clip-rule="evenodd" d="M235.745 25.3177C256.353 10.2141 280.926 1.47257 306.438 0.170187C331.949 -1.1322 357.284 5.06146 379.321 17.988C401.358 30.9146 419.134 50.0093 430.459 72.9195C441.784 95.8296 446.163 121.554 443.056 146.924C476.556 142.65 510.408 151.537 537.496 171.717C564.583 191.897 582.797 221.799 588.308 255.136C593.728 288.368 586.014 322.448 566.81 350.098C547.605 377.748 518.408 396.842 485.39 403.346C499.66 433.796 501.51 468.611 490.547 500.404C479.584 532.197 456.672 558.464 426.672 573.632C396.591 588.996 361.751 592.175 329.388 582.509C297.026 572.843 269.628 551.076 252.886 521.727C237.426 536.015 218.76 546.376 198.461 551.938C178.161 557.5 156.824 558.1 136.245 553.687C115.666 549.274 96.4477 539.977 80.2097 526.58C63.9717 513.183 51.1891 496.078 42.9385 476.705C33.2451 453.826 30.3466 428.636 34.5901 404.152C38.8335 379.667 50.0391 356.925 66.8654 338.647C37.4624 322.275 15.5389 295.146 5.69462 262.951C-4.14963 230.756 -1.14952 195.997 14.0655 165.967C29.2805 135.937 55.5279 112.97 87.3008 101.885C119.074 90.7997 153.903 92.4575 184.481 106.511C190.688 73.9448 209.005 44.9454 235.739 25.3597M379.906 312.22C372.043 363.077 324.214 397.849 273.05 389.929C221.886 382.009 186.794 334.402 194.657 283.545C202.521 232.688 250.35 197.916 301.514 205.836C352.678 213.756 387.769 261.364 379.906 312.22Z" fill="#BFA2D8"/>
</g>
</svg>
