<svg width="430" height="579" viewBox="0 0 430 579" fill="none" xmlns="http://www.w3.org/2000/svg">
<g opacity="0.3">
<path d="M379.94 290.425C379.94 342.831 337.406 385.314 284.937 385.314C232.468 385.314 189.933 342.831 189.933 290.425C189.933 238.019 232.468 195.536 284.937 195.536C337.406 195.536 379.94 238.019 379.94 290.425Z" fill="#BFA2D8"/>
<path fill-rule="evenodd" clip-rule="evenodd" d="M232.549 24.9302C252.877 10.0578 277.117 1.45003 302.283 0.167582C327.448 -1.11487 352.44 4.98399 374.178 17.7127C395.916 30.4414 413.451 49.2439 424.622 71.8033C435.794 94.3628 440.113 119.694 437.049 144.675C470.095 140.466 503.487 149.217 530.207 169.088C556.928 188.96 574.894 218.404 580.331 251.231C585.677 283.954 578.068 317.512 559.124 344.739C540.18 371.966 511.379 390.768 478.808 397.172C492.885 427.156 494.709 461.439 483.896 492.745C473.082 524.051 450.48 549.916 420.887 564.852C391.214 579.981 356.846 583.111 324.922 573.593C292.998 564.075 265.972 542.641 249.457 513.741C234.206 527.811 215.793 538.014 195.77 543.49C175.746 548.967 154.697 549.558 134.397 545.212C114.097 540.867 95.1399 531.712 79.1221 518.52C63.1043 505.328 50.495 488.485 42.3563 469.408C32.7943 446.879 29.9352 422.076 34.1211 397.966C38.307 373.856 49.3606 351.462 65.9588 333.464C36.9544 317.343 15.3282 290.629 5.6174 258.926C-4.09337 227.224 -1.13394 192.997 13.8748 163.427C28.8835 133.857 54.775 111.241 86.1171 100.326C117.459 89.4099 151.816 91.0423 181.979 104.88C188.102 72.813 206.171 44.2574 232.542 24.9716M374.755 307.441C366.998 357.52 319.817 391.76 269.347 383.961C218.877 376.162 184.261 329.283 192.018 279.205C199.775 229.127 246.955 194.887 297.425 202.686C347.896 210.484 382.512 257.363 374.755 307.441Z" fill="#BFA2D8"/>
</g>
</svg>
