<svg width="403" height="526" viewBox="0 0 403 526" fill="none" xmlns="http://www.w3.org/2000/svg">
<g opacity="0.3">
<path d="M227.278 237.67C241.609 283.039 216.411 331.447 170.997 345.793C125.582 360.138 77.1486 334.989 62.8174 289.621C48.4862 244.253 73.6842 195.845 119.099 181.499C164.513 167.153 212.947 192.302 227.278 237.67Z" fill="#BFA2D8"/>
<path fill-rule="evenodd" clip-rule="evenodd" d="M27.0996 48.1273C40.6275 29.6941 59.2547 15.6147 80.6861 7.62382C102.117 -0.367039 125.417 -1.9202 147.713 3.1557C170.009 8.2316 190.328 19.7148 206.167 36.1904C222.005 52.666 232.671 73.4142 236.851 95.8786C264.302 83.1998 295.598 81.6456 324.16 91.5428C352.722 101.44 376.325 122.018 390.007 148.95C403.584 175.817 406.175 206.949 397.223 235.699C388.272 264.449 368.485 288.602 342.044 303.051C362.428 325.16 373.383 354.34 372.584 384.398C371.785 414.457 359.295 443.028 337.766 464.05C316.219 485.26 287.328 497.367 257.094 497.855C226.859 498.344 197.606 487.177 175.408 466.674C166.055 483.024 152.908 496.891 137.074 507.107C121.24 517.323 103.183 523.589 84.424 525.378C65.665 527.166 46.7531 524.424 29.2813 517.383C11.8096 510.342 -3.71051 499.208 -15.9717 484.919C-30.4089 468.029 -39.6666 447.338 -42.6367 425.321C-45.6068 403.305 -42.1634 380.896 -32.7187 360.776C-62.232 354.75 -88.2559 337.537 -105.331 312.746C-122.405 287.956 -129.204 257.517 -124.299 227.814C-119.395 198.111 -103.169 171.454 -79.0259 153.434C-54.8828 135.415 -24.699 127.435 5.19286 131.167C1.72336 101.732 9.55389 72.0711 27.1054 48.1649M227.443 253.82C234.424 299.294 202.95 341.835 157.133 348.883C111.316 355.931 68.5345 324.812 61.5537 279.338C54.5728 233.864 86.0465 191.322 131.864 184.274C177.681 177.226 220.462 208.345 227.443 253.82Z" fill="#BFA2D8"/>
</g>
</svg>
