<svg width="505" height="740" viewBox="0 0 505 740" fill="none" xmlns="http://www.w3.org/2000/svg">
<g opacity="0.3">
<path d="M485.044 371.182C485.044 438.16 430.743 492.457 363.759 492.457C296.776 492.457 242.475 438.16 242.475 371.182C242.475 304.204 296.776 249.907 363.759 249.907C430.743 249.907 485.044 304.204 485.044 371.182Z" fill="#BFA2D8"/>
<path fill-rule="evenodd" clip-rule="evenodd" d="M296.879 31.8624C322.831 12.8545 353.776 1.85324 385.904 0.21418C418.031 -1.42488 449.936 6.36986 477.687 22.638C505.439 38.9061 527.825 62.9369 542.086 91.7694C556.348 120.602 561.863 152.976 557.951 184.904C600.138 179.525 642.768 190.709 676.88 216.106C710.992 241.503 733.929 279.134 740.869 321.09C747.694 362.912 737.981 405.802 713.796 440.599C689.611 475.397 652.843 499.427 611.262 507.612C629.232 545.934 631.562 589.749 617.757 629.76C603.951 669.771 575.097 702.829 537.318 721.918C499.436 741.253 455.561 745.254 414.806 733.09C374.051 720.925 339.549 693.531 318.465 656.595C298.995 674.577 275.489 687.617 249.926 694.616C224.363 701.616 197.492 702.371 171.576 696.817C145.66 691.263 121.459 679.563 101.01 662.703C80.5609 645.843 64.4635 624.315 54.0734 599.935C41.8663 571.141 38.2162 539.44 43.5601 508.626C48.9039 477.812 63.0153 449.191 84.2051 426.188C47.1772 405.585 19.5684 371.442 7.17136 330.925C-5.22572 290.407 -1.44762 246.663 17.713 208.87C36.8736 171.077 69.9275 142.174 109.94 128.223C149.952 114.272 193.813 116.358 232.32 134.044C240.137 93.0598 263.205 56.5639 296.871 31.9153M478.424 392.93C468.522 456.934 408.289 500.694 343.857 490.727C279.425 480.76 235.234 420.846 245.136 356.842C255.039 292.839 315.271 249.078 379.703 259.045C444.135 269.013 488.327 328.927 478.424 392.93Z" fill="#BFA2D8"/>
</g>
</svg>
