<svg width="506" height="793" viewBox="0 0 506 793" fill="none" xmlns="http://www.w3.org/2000/svg">
<g opacity="0.3">
<path d="M-13.6435 397.767C-13.6435 469.542 44.531 527.727 116.293 527.728C188.055 527.728 246.229 469.542 246.229 397.767C246.229 325.992 188.055 267.806 116.293 267.806C44.531 267.806 -13.6435 325.992 -13.6435 397.767Z" fill="#BFA2D8"/>
<path fill-rule="evenodd" clip-rule="evenodd" d="M187.944 34.1445C160.141 13.7751 126.988 1.98597 92.5689 0.22952C58.1499 -1.52693 23.9691 6.82608 -5.76201 24.2594C-35.4932 41.6926 -59.4758 67.4445 -74.7548 98.3421C-90.0338 129.24 -95.9417 163.933 -91.7506 198.147C-136.947 192.383 -182.618 204.368 -219.164 231.584C-255.709 258.8 -280.281 299.126 -287.717 344.087C-295.029 388.904 -284.623 434.866 -258.713 472.156C-232.803 509.445 -193.411 535.197 -148.865 543.968C-168.117 585.034 -170.613 631.988 -155.823 674.865C-141.033 717.741 -110.12 753.167 -69.6461 773.623C-29.0619 794.343 17.9427 798.631 61.6047 785.595C105.267 772.559 142.23 743.202 164.818 703.622C185.677 722.891 210.86 736.865 238.247 744.366C265.633 751.867 294.421 752.676 322.185 746.724C349.95 740.773 375.877 728.235 397.785 710.167C419.692 692.099 436.938 669.03 448.069 642.903C461.147 612.047 465.058 578.076 459.333 545.055C453.608 512.034 438.49 481.363 415.788 456.713C455.458 434.633 485.036 398.046 498.317 354.626C511.598 311.206 507.551 264.329 487.024 223.83C466.496 183.33 431.084 152.356 388.218 137.406C345.351 122.456 298.362 124.692 257.108 143.644C248.733 99.7249 224.02 60.6151 187.953 34.2011M-6.55124 421.073C4.05765 489.66 68.5864 536.555 137.614 525.874C206.642 515.193 253.987 450.987 243.378 382.4C232.769 313.813 168.24 266.918 99.212 277.599C30.184 288.28 -17.1601 352.485 -6.55124 421.073Z" fill="#BFA2D8"/>
</g>
</svg>
